<svg xmlns="http://www.w3.org/2000/svg" xmlns:xlink="http://www.w3.org/1999/xlink" width="500" zoomAndPan="magnify" viewBox="0 0 375 374.999991" height="500" preserveAspectRatio="xMidYMid meet" version="1.0"><defs><g/><clipPath id="d9dac4ccc8"><path d="M 135.257812 81.972656 L 239.507812 81.972656 L 239.507812 146 L 135.257812 146 Z M 135.257812 81.972656 " clip-rule="nonzero"/></clipPath><clipPath id="3fe8540e0e"><path d="M 161 125 L 220 125 L 220 197.472656 L 161 197.472656 Z M 161 125 " clip-rule="nonzero"/></clipPath></defs><rect x="-37.5" width="450" fill="#ffffff" y="-37.499999" height="449.999989" fill-opacity="1"/><rect x="-37.5" width="450" fill="#ffffff" y="-37.499999" height="449.999989" fill-opacity="1"/><rect x="-37.5" width="450" fill="#edc7b7" y="-37.499999" height="449.999989" fill-opacity="1"/><g clip-path="url(#d9dac4ccc8)"><path fill="#123c69" d="M 186.886719 81.972656 C 159.09375 81.972656 135.273438 105.871094 135.273438 133.75 C 135.273438 138.726562 136.265625 142.710938 136.265625 145.699219 C 142.222656 140.71875 149.167969 137.730469 157.109375 136.734375 C 149.167969 135.742188 142.222656 128.769531 142.222656 119.808594 C 142.222656 110.847656 150.160156 102.882812 159.09375 102.882812 C 169.019531 102.882812 175.96875 110.847656 175.96875 119.808594 C 175.96875 122.796875 175.96875 125.785156 173.984375 128.769531 C 176.960938 124.789062 181.921875 121.800781 186.886719 121.800781 C 192.839844 121.800781 197.804688 124.789062 200.78125 128.769531 C 198.796875 125.785156 197.804688 122.796875 197.804688 119.808594 C 197.804688 110.847656 205.746094 102.882812 215.671875 102.882812 C 224.601562 102.882812 232.542969 110.847656 232.542969 119.808594 C 232.542969 128.769531 225.59375 135.742188 217.65625 136.734375 C 225.59375 137.730469 232.542969 140.71875 237.507812 145.699219 C 238.5 142.710938 239.492188 138.726562 239.492188 133.75 C 239.492188 105.871094 215.671875 81.972656 186.886719 81.972656 Z M 186.886719 81.972656 " fill-opacity="1" fill-rule="evenodd"/></g><g clip-path="url(#3fe8540e0e)"><path fill="#eee2dc" d="M 186.886719 125.785156 C 179.9375 125.785156 173.984375 131.757812 173.984375 139.722656 C 173.984375 146.691406 179.9375 152.667969 186.886719 152.667969 C 194.828125 152.667969 200.78125 146.691406 200.78125 139.722656 C 200.78125 131.757812 194.828125 125.785156 186.886719 125.785156 Z M 219.640625 196.476562 C 216.664062 195.480469 205.746094 188.511719 213.683594 178.554688 C 209.714844 167.601562 199.789062 159.636719 186.886719 159.636719 C 174.976562 159.636719 165.050781 167.601562 161.078125 178.554688 C 171.003906 191.5 198.796875 201.457031 219.640625 196.476562 Z M 219.640625 196.476562 " fill-opacity="1" fill-rule="evenodd"/></g><path fill="#bab2b5" d="M 159.09375 105.871094 C 152.148438 105.871094 146.191406 112.839844 146.191406 119.808594 C 146.191406 127.773438 152.148438 133.75 159.09375 133.75 C 167.035156 133.75 172.992188 127.773438 172.992188 119.808594 C 172.992188 112.839844 167.035156 105.871094 159.09375 105.871094 Z M 138.25 149.679688 C 141.230469 161.628906 148.175781 170.589844 158.101562 176.5625 C 162.074219 166.605469 171.003906 158.640625 182.914062 156.648438 C 182.914062 155.65625 182.914062 155.65625 182.914062 155.65625 C 176.960938 153.664062 171.996094 148.683594 171.003906 142.710938 C 167.035156 140.71875 163.066406 139.722656 159.09375 139.722656 C 150.160156 139.722656 143.214844 143.707031 138.25 149.679688 Z M 138.25 149.679688 " fill-opacity="1" fill-rule="evenodd"/><path fill="#ac3b61" d="M 215.671875 105.871094 C 207.730469 105.871094 201.773438 112.839844 201.773438 119.808594 C 201.773438 127.773438 207.730469 133.75 215.671875 133.75 C 222.617188 133.75 228.574219 127.773438 228.574219 119.808594 C 228.574219 112.839844 222.617188 105.871094 215.671875 105.871094 Z M 216.664062 176.5625 C 226.589844 170.589844 233.535156 161.628906 236.511719 149.679688 C 231.550781 143.707031 223.609375 139.722656 215.671875 139.722656 C 210.707031 139.722656 207.730469 140.71875 203.757812 142.710938 C 202.765625 148.683594 197.804688 153.664062 191.847656 155.65625 C 191.847656 155.65625 190.855469 155.65625 190.855469 156.648438 C 190.855469 156.648438 191.847656 156.648438 191.847656 156.648438 C 202.765625 158.640625 212.691406 166.605469 216.664062 176.5625 Z M 216.664062 176.5625 " fill-opacity="1" fill-rule="evenodd"/><g fill="#123c69" fill-opacity="1"><g transform="translate(148.122498, 243.533305)"><g><path d="M 10.980469 -5.699219 C 10.980469 -2.546875 9.839844 0 7.941406 0 C 6.042969 0 4.902344 -2.546875 4.902344 -5.699219 L 4.902344 -20.898438 C 4.902344 -24.050781 6.042969 -26.597656 7.941406 -26.597656 C 9.839844 -26.597656 10.980469 -24.050781 10.980469 -20.898438 Z M 1.863281 -5.699219 C 1.863281 -2.355469 4.40625 0.378906 7.941406 0.378906 C 11.472656 0.378906 14.019531 -2.355469 14.019531 -5.699219 L 14.019531 -20.898438 C 14.019531 -24.242188 11.472656 -26.976562 7.941406 -26.976562 C 4.40625 -26.976562 1.863281 -24.242188 1.863281 -20.898438 Z M 1.863281 -5.699219 "/></g></g></g><g fill="#123c69" fill-opacity="1"><g transform="translate(164.763258, 243.533305)"><g><path d="M 7.21875 -12.917969 C 9.308594 -12.917969 11.019531 -10.371094 11.019531 -7.21875 L 11.019531 -2.089844 C 11.019531 -0.722656 12.121094 0.378906 13.488281 0.378906 C 14.855469 0.378906 15.957031 -0.722656 15.957031 -2.089844 L 15.578125 -2.089844 C 15.578125 -1.367188 15.234375 -0.796875 14.816406 -0.796875 C 14.398438 -0.796875 14.058594 -1.367188 14.058594 -2.089844 L 14.058594 -7.21875 C 14.058594 -10.03125 12.082031 -12.425781 9.042969 -13.109375 C 12.082031 -13.792969 14.058594 -16.1875 14.058594 -18.996094 L 14.058594 -20.515625 C 14.058594 -23.859375 11.324219 -26.597656 7.21875 -26.597656 L 1.140625 -26.597656 L 1.140625 -26.214844 L 2.660156 -26.214844 L 2.660156 -0.378906 L 1.140625 -0.378906 L 1.140625 0 L 7.21875 0 L 7.21875 -0.378906 L 5.699219 -0.378906 L 5.699219 -12.917969 Z M 7.21875 -26.214844 C 9.308594 -26.214844 11.019531 -23.671875 11.019531 -20.515625 L 11.019531 -18.996094 C 11.019531 -15.84375 9.308594 -13.296875 7.21875 -13.296875 L 5.699219 -13.296875 L 5.699219 -26.214844 Z M 7.21875 -26.214844 "/></g></g></g><g fill="#123c69" fill-opacity="1"><g transform="translate(181.745944, 243.533305)"><g><path d="M -0.226562 0 L 3.417969 0 L 3.417969 -0.378906 L 1.976562 -0.378906 L 3.535156 -7.789062 L 8.96875 -7.789062 L 10.5625 -0.378906 L 9.042969 -0.378906 L 9.042969 0 L 15.199219 0 L 15.199219 -0.378906 L 13.679688 -0.378906 L 7.828125 -26.976562 L 7.21875 -26.976562 L 1.898438 -1.824219 C 1.710938 -0.949219 0.988281 -0.378906 -0.226562 -0.378906 Z M 6.191406 -20.25 L 8.890625 -8.167969 L 3.609375 -8.167969 Z M 6.191406 -20.25 "/></g></g></g><g fill="#123c69" fill-opacity="1"><g transform="translate(197.702838, 243.533305)"><g><path d="M 0.609375 -26.597656 L 0.609375 -21.277344 L 0.988281 -21.277344 C 0.988281 -24.011719 2.089844 -26.214844 3.457031 -26.214844 L 5.925781 -26.214844 L 5.925781 -0.378906 L 4.40625 -0.378906 L 4.40625 0 L 10.488281 0 L 10.488281 -0.378906 L 8.96875 -0.378906 L 8.96875 -26.214844 L 11.4375 -26.214844 C 12.804688 -26.214844 13.90625 -24.011719 13.90625 -21.277344 L 14.285156 -21.277344 L 14.285156 -26.597656 Z M 0.609375 -26.597656 "/></g></g></g><g fill="#123c69" fill-opacity="1"><g transform="translate(213.355802, 243.533305)"><g><path d="M 12.160156 -26.597656 L 1.140625 -26.597656 L 1.140625 -26.214844 L 2.660156 -26.214844 L 2.660156 -0.378906 L 1.140625 -0.378906 L 1.140625 0 L 12.160156 0 L 12.160156 -5.320312 L 11.777344 -5.320312 C 11.777344 -2.582031 10.675781 -0.378906 9.308594 -0.378906 L 5.699219 -0.378906 L 5.699219 -13.109375 L 7.980469 -13.109375 C 8.816406 -13.109375 9.5 -11.742188 9.5 -10.070312 L 9.878906 -10.070312 L 9.878906 -16.527344 L 9.5 -16.527344 C 9.5 -14.855469 8.816406 -13.488281 7.980469 -13.488281 L 5.699219 -13.488281 L 5.699219 -26.214844 L 9.308594 -26.214844 C 10.675781 -26.214844 11.777344 -24.011719 11.777344 -21.277344 L 12.160156 -21.277344 Z M 12.160156 -26.597656 "/></g></g></g></svg>